<?xml version="1.0" encoding="utf-8"?>
<!-- Generator: Adobe Illustrator 27.6.1, SVG Export Plug-In . SVG Version: 6.00 Build 0)  -->
<svg version="1.1" id="Calque_1" xmlns="http://www.w3.org/2000/svg" xmlns:xlink="http://www.w3.org/1999/xlink" x="0px" y="0px"
	 viewBox="0 0 960 720" enable-background="new 0 0 960 720" xml:space="preserve">
<g>
	<g>
		<path fill-rule="evenodd" clip-rule="evenodd" fill="white" d="M709.33,445.41c0.18-0.1,0.41-0.15,0.74-0.14l10.94,0.59
			c6.44,0.97,5.55-2.04,4.7,5.56c-0.38,3.4-0.8,6.69-1.33,10.14c-0.52,3.37-1,6.28-1.55,9.61c-2.19,13.1-3.6,20.64-11.89,30.97
			l-7.03,7.46c-5.52,5.57-16,13.46-22.26,17.58c-1.18,0.78-2.14,1.53-3.38,2.35c-10.07,6.68-18.97,11.16-29.53,16.36
			c-5.13,2.53-10.46,4.98-15.95,6.99c-1.19,0.44-2.58,0.99-3.87,1.57c-1.43,0.65-2.67,0.97-4.16,1.58
			c-8.79,3.56-24.96,8.34-34.75,11.13c-8.29,2.36-15.7,4.19-22.98,5.73v15.07c9.53-1.94,18.71-4.21,28.32-7.01l19.46-5.9
			c1.77-0.5,3.01-1.04,4.79-1.55c13.13-3.81,37.83-14.87,48.97-21.06c11.33-6.29,22.31-13.23,32.52-21.21
			c0.72-0.56,1.21-0.87,1.89-1.43l10.28-8.73c4.33-4,8.37-8.61,11.97-13.38c3.83-5.07,6.7-10.57,8.52-16.83
			c2.68-9.24,4.69-22.17,5.89-32.14c0.43-3.56,1.15-7.86,1.46-11.52c10.26,0,20.58,1.55,30.8,1.8c5.32,0.13,18.27,1.56,22.94,1.51
			l13.89,0.31c2.06,0.01,2.76-0.32,4.82-0.32l19.54-0.68c6.57-0.9,19.35,0.08,26.34,0.08v-0.6c-7.14,0-14.49-0.89-21.6-1.94
			l-27.28-4.11c-4.66-0.65-9.74-1.45-14.49-1.5c-1.25-0.02-2.7,0.1-3.92,0c-1.29-0.11-1.91-0.3-3.63-0.29
			c-2.94,0.02-4.94-0.32-7.55-0.3c-1.28,0.01-2.67,0.05-3.94,0.01c-1.57-0.05-2.06-0.33-3.91-0.32c-5.42,0.02-9.88-0.3-15.4-0.29
			c-2.94,0-4.65-0.31-7.55-0.3c-2.72,0.01-5.43,0-8.15,0c0-5.86,1.21-11.6,1.21-17.51c4.95-1.15,14.96-1.98,20.35-2.89
			c13.47-2.26,25.69-5.72,38.98-8.1c4.11-0.74,16.29-3.19,20.35-3.19c-0.7-0.95-0.19-0.51-1.81-0.35l-17.28,1.78
			c-2.59,0.34-5.07,0.24-7.77,0.38c-1.31,0.07-1.11,0.24-2.41,0.3c-0.88,0.05-1.84-0.05-2.72,0c-1.31,0.07-1.1,0.24-2.41,0.3
			c-0.88,0.05-1.84-0.05-2.72,0c-1.33,0.07-1.26,0.27-2.71,0.31c-12.63,0.37-22.54,1.66-34.38,3.65c-1.44,0.24-3.35,0.74-4.87,0.87
			l0.6-11.17c0.07-1.26-0.09-2.66,0.01-3.91c0.57-6.88,1.14-24.84,0.33-32.06c-0.14-1.23-0.04-2.91-0.04-4.19l-1.82-28.06
			c-0.17-12.33-5.71-38.54-9.55-50.22c-2.83-8.62-5.25-17.32-8.86-25.56c-7.13-16.29-16.33-31.77-26.91-45.83
			c-13.33-17.7-21.97-27.32-37.92-43.28c-2.07-2.07-4.3-4.32-6.59-6.09l-3.52-3.12c-0.46-0.41-0.61-0.63-1.09-1.02l-11.58-9.55
			c-3.94-3.23-8.27-6.05-12.35-9.08c-0.89-0.66-1.51-1.09-2.49-1.74c-8.27-5.5-13.5-8.22-21.44-12.97
			c-1.76-1.06-3.81-1.95-5.61-2.84c-1.96-0.98-3.79-1.9-5.83-2.92l-11.59-5.32c-20.96-9.05-43.06-15.72-65.51-20.21
			c-5.84-1.17-12.46-1.94-18.61-2.82c-1.27-0.18-2.92-0.21-3.89-0.33c-8.9-1.17-17.61-0.41-26.46,0.83
			c-20.39,2.86-35.78,6.52-55.22,13c-8.41,2.8-16.9,6.02-25.05,9.36l-8.69,3.99c-4.78,2.41-9.69,4.42-14.39,7.05
			c-3.78,2.11-7.25,4.04-10.94,6.26c-8.8,5.29-17.43,10.99-25.39,17.47l-14.02,11.63c-3.63,2.9-14.49,13.83-17.54,16.87
			c-10.64,10.64-20.03,22.55-29.21,34.48c-5.67,7.38-10.51,15.33-15.34,23.3l-6.2,11.01c-2.01,3.97-3.76,7.47-5.55,11.66
			c-3.44,8.06-6.21,16.87-8.8,25.31c-4.74,15.46-9.91,41.58-10.31,58.21c-0.13,5.5-0.82,10.67-0.89,16.32
			c-0.02,1.71-0.32,2.09-0.32,3.9l-0.29,12.69c0,7.83-0.04,16.32,0.59,23.86c0.1,1.25-0.05,2.65,0.01,3.91l0.6,11.17
			c-3.52-0.29-13.73-2.47-18.66-3.07c-6.49-0.8-13.39-1.23-20.59-1.44l-37.73-3.05c-1.32-0.13-1.51-0.49-2.1,0.33
			c6.09,0,34.84,6.05,39.61,7.18c13.38,3.17,21.6,4.31,34.82,6.23c1.91,0.28,3.61,0.39,5.27,0.77c0,5.91,1.21,11.65,1.21,17.51
			c-2.62,0-5.23,0-7.85,0c-2.94,0-4.65,0.31-7.55,0.3c-5.52-0.01-10.01,0.33-15.4,0.3c-7.41-0.04-15.08,0.94-22.64,0.9
			c-7.54-0.04-38.68,5.09-49.11,6.44c-2.07,0.27-4.82,0.34-7.16,0.69c-2.31,0.34-5.28,0.43-7.72,0.43v0.6
			c6.17,0,20.5-0.97,26.09-0.13l19.5,0.73c2.12-0.01,2.87,0.31,4.82,0.32l10.28,0c1.58-0.05,2.05-0.33,3.91-0.31
			c2.1,0.02,5.82-0.27,7.63-0.52l15.3-1c5.26-0.13,10.1-0.75,15.41-0.89c5-0.13,9.93-0.91,15.39-0.91c0.29,3.53,0.98,7.9,1.42,11.26
			c0.52,3.95,1.02,7.28,1.64,11.04c2.17,13.03,3.5,23.14,10.12,34.25c0.82,1.38,1.63,2.56,2.55,3.78
			c9.16,12.14,20.86,21.5,33.16,30.23c1.25,0.89,2.4,1.67,3.74,2.6c15.48,10.75,32.65,19.23,50.16,26.21
			c9.2,3.67,18.54,7.24,28.14,9.89l14.59,4.43c9.38,2.74,18.91,5.11,28.55,7.1V572.9c-8.16-1.74-16.53-3.89-26.97-6.89
			c-1.64-0.47-2.99-0.95-4.39-1.34c-6.56-1.81-19.78-5.98-25.94-8.47l-8.23-3.24c-5.37-2.04-10.69-4.31-15.77-6.87
			c-11.05-5.57-18.54-8.97-29.56-16.32c-5.5-3.67-11.57-7.77-16.63-12.05l-4.55-3.9c-2.56-2.28-5.18-4.42-7.41-7.08
			c-3.37-4.01-4.75-4.49-7.94-9.27c-5.09-7.63-6.78-16.62-8.36-26.05l-2.91-19.73c-0.88-7.66-1.88-4.93,4.42-5.79
			c3.18-0.44,7.28-0.37,10.94-0.6c0.38-0.02,0.61-0.09,0.77-0.09l-0.16-4.35l-17.21-0.6c-0.46-1.96-0.64-5.49-0.86-7.59
			c-0.2-1.83-0.12-6.71-0.65-7.8c1.22,0,12.16,1.53,15.94,2.16l0.05,0.01l1.38,0.22l-0.43-4.37c-0.21,0.09-0.68-0.03-1.66-0.3
			c-5.25-1.42-10.24-2.52-15.59-3.77l-1.21-20.52c-0.08-1.46,0.08-3.07,0-4.53c-1.04-19.27,0.05-39.35,4.58-57.59
			c2.4-9.66,5.48-19.14,8.95-28.48l4.18-10.61c4.14-10.4,9.09-20.58,14.82-30.16c6.45-10.77,13.94-20.63,22-30.22l21.75-23.22
			c2.54-2.54,5.07-4.64,7.69-7.1c0.75-0.7,1.17-0.9,1.96-1.66c6.03-5.75,16.86-12.96,23.86-17.19c4.79-2.89,9.4-5.47,14.44-7.9
			l15.49-6.85c8.32-3.68,35.74-11.87,45.46-14.3c15.42-3.85,27.5-6.02,43.8-8.42c1.75-0.26,4.88-0.7,6.74-0.8l21.04-0.53
			c1.72,0.24,5.09,0.44,7.02,0.52c8.94,0.38,31.13,4.53,38.46,6.22c13.78,3.17,33.71,8.83,46.63,13.14
			c9.22,3.07,22.62,8.65,31.33,13.34l9.63,5.46c8.29,4.99,16.52,10.55,23.75,17l24.51,24.09l10.37,11.97
			c3.51,4.02,6.76,8.11,9.79,12.55l8.83,13.51c4.8,7.96,8.94,16.25,12.63,24.8c4.56,10.56,9.14,21.66,12.23,32.75
			c2.2,7.9,4.4,15.95,5.76,24.13c2.81,16.91,2.67,32.76,2.17,49.77c-0.16,5.31-0.9,11.35-0.91,16.6c0,1.87-0.31,2.33-0.31,4.22
			c-5.24,1.22-10.24,2.29-15.34,3.7c-0.81,0.22-1.32,0.37-1.63,0.34v0l-0.47,4.4c1.16-0.33,15.73-2.39,17.14-2.39
			c-0.51,1.05-0.66,11.74-1.51,15.39c-2.81,0-5.92-0.23-8.58,0.17c-1.39,0.21-2.94,0.13-4.4,0.13c-1.86-0.01-2.74,0.17-4.11,0.29
			L709.33,445.41L709.33,445.41z"/>
		<path fill-rule="evenodd" clip-rule="evenodd" fill="white" d="M323.31,454.51c2.81,3.41,10.26,22.83,11.93,28.79
			c4.26,15.19-0.59,24.85,11.44,29.6c9.78,3.86,20.46,6.61,30.31,10.44c10.63,4.13,23.56,9.91,28.41-3.14
			c4.04-10.88,8.93-59.05,9.48-72.4c0.53-12.91,1.65-25.81,2.2-38.83c0.29-6.85,0.07-13.21-0.07-20.02
			c-0.03-1.73-0.31-13.32-0.94-14.57c-2.1-4.17-15.12-2.81-21.74-3.65c-5.82-0.74-11.45-2.14-16.89-3.6
			c-4.62-1.24-12.4-4.01-17.41-2.79c-3.41,0.83-4.24,2.04-4.69,5.62c-0.45,3.59-0.45,6.14-0.15,9.78
			c1.16,14.16,7.42,65.77,2.46,75.82c-3.15,6.38-8.48-3.06-9.89-5.91c-6.4-12.89-8.65-37.94-14.97-46.61
			c-4.32-5.93-8.49-3.38-12.69,0.77c-5.93,5.85-12.14,16.95-16.58,24.48c-1.25,2.12-2.71,4.3-4.11,6.16
			c-1.12,1.5-3.51,4.68-5.73,4.66c-2.24-6.6,0.54-15.33,2.25-21.75c3.63-13.63,8.63-27.1,10.83-41.1
			c1.53-9.71,1.14-15.42-4.77-20.01c-11.23-8.73-21.59-8.89-35.13-10.14c-2.69-0.25-3.29,0.45-3.69,2.92
			c-2.56,15.57-4.28,31.57-4.02,47.77c0.27,16.92,1.14,31.61,3.88,47.9c1.35,7.99,3.43,24.61,7.9,31.05
			c1.71,2.46,4.2,4.54,6.96,6.03c5.55,2.99,11.68,5.71,17.35,8.61c13.4,6.86,25.42,15.63,26.37-11.8
			C321.76,474.31,321.97,457.08,323.31,454.51z"/>
		<path fill-rule="evenodd" clip-rule="evenodd" fill="white" d="M584.19,426.08c5.16-0.38,23.83,24.41,28.9,31.11
			c4.37,5.79,8.09,11.45,11.96,17.92c3.84,6.42,7.68,12.87,14.16,16.03c8.38,4.09,16.32,0.89,24.34-1.68
			c4.74-1.52,19.2-5.64,22.58-7.6c7.5-4.34,7.58-11.8,8.02-22.14c0.41-9.72,0.8-19.44,1.13-29.14c0.63-18.39,0.34-39.33-2.21-57.28
			l-3.8-18.79c-0.52-8.21-5.97-5.29-14.77-2.32c-3.84,1.3-7.61,2.47-11.75,3.34c-15.08,3.18-31.3,0.53-25.38,16.99
			c3.07,8.53,4.26,32.23,4.06,41.16c-0.28,12.46-5.86,14.44-14.49,7.91c-9.55-7.23-16.82-23.39-23.43-36.63
			c-3.32-6.64-6.62-13.78-10.83-19.05c-2.62-3.29-6.32-3.2-11.48-2.24c-4.28,0.8-8.56,1.51-12.98,2.09
			c-12.83,1.68-17.95-0.37-19.51,10.33c-1.24,8.45,1.39,19.1,2.31,27.6c0.47,4.36,0.56,9.8,0.3,14.21
			c-0.19,3.2-0.31,7.74,0.14,10.95c0.25,1.81,0.7,1.27,0.89,3.07c0.97,9.37,0.99,19.08,1.75,28.52c0.76,9.39,1.4,19.2,0.98,28.68
			c-0.28,6.3-4.43,35.71,7.08,36.44c3.5,0.22,8.76-1.96,12.01-2.95c3.96-1.2,7.9-2.17,12.19-2.88c14.44-2.38,22.49-4.75,18.88-24.81
			C601.16,472.41,581.2,437.24,584.19,426.08z"/>
		<path fill-rule="evenodd" clip-rule="evenodd" fill="white" d="M432.55,370.07c-3.19,0.59-3.1,1.2-5.16,2.16
			c-2.34,1.08-1.37,3.14-1.22,5.84c0.27,4.64,0.92,9.31,1.2,13.91c1.29,21.13-0.6,66.63-3.44,85.76
			c-1.31,8.85-3.27,16.27-5.27,24.61c-1.7,7.1-4.88,18.83-1.41,25.4c4.31,8.14,13.22,5.81,23.21,5.56c4.87-0.12,9.75-0.29,14.61-0.5
			c5.01-0.21,9.72,0.15,14.67,0.18c9.7,0.05,19.26,0.92,28.98,0.99c9.45,0.06,19.4-0.43,28.72-1.29
			c9.55-0.87,16.69-2.82,19.15-10.79c2.58-8.37-0.39-30.51-2.78-40.1c-1.03-4.12-2.1-8.36-5.7-9.41c-4.4-1.29-18.62,4.99-22.96,6.61
			c-13.03,4.86-37.62,13.03-44.99-1.44c-5.16-10.12,2.23-23.92,13.08-28.35c3.9-1.59,8.48-2.26,13.07-2.08
			c8.98,0.34,17.36,2.07,25.4,4.55c2.77,0.86,9.39,3.05,12.31,2.74c11.03-1.16,7.77-28.11,3.36-33.22
			c-2.66-3.08-7.96,0.27-10.74,1.68c-10.02,5.1-22.8,10.08-34.55,10.33c-8.64,0.19-19.8-2.33-16.1-12.39
			c5.37-14.62,26.78-18.61,41.75-17.42c9.45,0.75,19.78,2.83,22.65-6c1.51-4.65,1.33-19.53,0-24.47c-0.42-1.57-0.4-1.43-1.82-2.11
			c-5.66-2.74-19.53,0.93-25.79,2.28c-20.06,4.31-33.5,3.97-53.63,0.15C452.48,371.98,439.1,368.85,432.55,370.07z"/>
		<path fill-rule="evenodd" clip-rule="evenodd" fill="white" d="M309.49,320.64c0.24-4.54,12.17-23.99,15.45-28.22
			c2-2.58,1.26-3.62,4.76-2.79c4.68,1.11,8.81,2.98,12.36,5.14c5.97,3.62,14.61,10.54,16.59,18.41c2.77,11-12.41,12.77-21.72,12.78
			C325.08,325.95,319.59,324.34,309.49,320.64L309.49,320.64z M344.89,267.46c0.83-0.91,1.47-1.87,2.4-2.78
			c1.09-1.06,1.63-1.57,2.56-2.57c6.95-7.4,35.33-34.7,42.18-28.21c3.82,3.62-4.35,12.44-5.59,13.78c-2.79,3.01-7.2,6.51-11.42,9.1
			C368.51,260.79,354.01,266.93,344.89,267.46L344.89,267.46z M416.27,197.71c-18.16,2.23-33.54,9.31-48.6,17.61
			c-2.37,1.3-4.78,2.76-7.02,4.15c-2.27,1.4-4.69,2.86-6.79,4.38l-12.76,9.27c-2.17,1.64-3.83,3.17-5.96,4.9
			c-4.19,3.4-7.71,6.71-11.56,10.48l-16.13,17.37c-0.79,0.91-1.58,1.98-2.44,3.01l-7.32,9.28c-3.07,3.85-6.3,8.56-9.06,12.98
			c-4.4,7.05-21.49,35.04-22.97,43.49c-0.68,3.91,3.13,4.06,6.22,4.95c13.81,3.98,31.34,7.69,45.62,9.92
			c12.92,2.01,26.49,2.23,38.94,5.16c11.57,2.72,24.51,8.94,34.71-0.84c7.05-6.75,7.89-24.94,6.86-36.74
			c-1.22-14.01-7.99-22.88-16.59-27.88c-2.72-1.58-9.77-4.53-9.26-6.64c0.27-1.12,1.89-2.26,2.83-2.86
			c4.56-2.93,10.22-4.55,15.97-6.06c14.55-3.83,18.94-7.97,24.94-19.44c3.36-6.41,10.68-24.25,13.02-31.36
			C433.48,208.99,435.83,195.31,416.27,197.71z"/>
		<path fill-rule="evenodd" clip-rule="evenodd" fill="white" d="M446.05,290.66c-0.45-3.39,2.71-20.57,3.51-24.85
			c1.2-6.46,3.24-17.85,6.82-21.68c3.63,9.57,1.29,38.39,0.86,48.48L446.05,290.66L446.05,290.66z M455.74,331.66
			c0.04,5.68-0.71,12.32-0.99,18.1c-0.13,2.77-0.21,6.33,0.75,8.72c1,2.5,2.81,3.28,6.01,3.7c8.41,1.08,29.17,2.36,34.63-2.68
			c3.83-3.53,1.13-8.49-0.74-14.67c-1.52-5.02-2.65-10.23-3.72-15.56c-4.26-21.27-5.03-50.44-5.18-72.55
			c-0.13-19.17-0.97-37.53-1.25-56.75c-0.1-7.1-2.11-9.58-8.15-11.3c-8.05-2.3-27.41-0.94-33.34,3.44
			c-4.06,2.99-4.79,6.95-5.96,13.38c-2.57,14.11-8.19,32.37-11.97,46.29c-2.77,10.19-4.93,20.73-7.39,31.27
			c-4.93,21.17-9.8,40.99-15.71,61.84c-0.9,3.17-4.74,12.15-2.92,15.57c1.91,3.59,11.71,3.18,16.49,3.23
			c6.05,0.06,12.88,0.19,18.77-0.58c6.77-0.88,8.02-4.37,8.04-11.3c0.06-26.44-1.89-23.06,4.25-21.71
			C449.85,330.64,453.64,331.04,455.74,331.66z"/>
		<path fill-rule="evenodd" clip-rule="evenodd" fill="white" d="M529.17,326.48c-1.95-1.38-4.44-10.28-5.38-13.64
			c-2.56-9.13-5.6-22.15-6.36-31.95c1.6,0.56,4.56,2.47,6.27,3.38c10.54,5.59,20.99,11.75,23.69,24.28
			c1.68,7.8-0.65,10.14-4.66,13.3C540.89,323.3,532.35,328.73,529.17,326.48L529.17,326.48z M515.78,247.07
			c-0.37-5.91,0.83-28.31,2.65-33.1c8.35-0.15,22.93,7.07,24.45,18.21C544.83,246.44,520.34,248.93,515.78,247.07L515.78,247.07z
			 M505.57,187.73c-2.62,0.44-4.82,1.05-7.23,1.9c-2.53,0.9-3.88,1.8-4.3,4.73c-0.78,5.38-0.52,12.14-0.22,17.39
			c0.31,5.56-0.47,11.89-0.6,17.5c-0.75,32.41-0.39,52.15,6.21,84.39c1.52,7.43,6.89,37.48,11.33,43.04
			c2.39,2.99,10.99,2.99,15.72,2.62c11.45-0.91,22.15,0.14,32.36-4.14c18.87-7.9,24.67-31.2,18.6-49.76
			c-6.76-20.68-23.69-29.61-27.82-35.88c-1.6-2.44,0.74-4.28,2.1-5.4c3.39-2.82,7.15-4.84,10.64-7.46c5.52-4.13,5.17-3.9,9.68-8.73
			c4.78-5.11,9.94-16.8,9.26-26.7c-0.38-5.56-2.12-9.64-4.5-13.6c-2.39-3.97-5.75-6.65-9.89-8.53c-12.35-5.6-30.64-7.62-44.43-10.2
			C517.37,187.95,510.82,186.84,505.57,187.73z"/>
		<path fill-rule="evenodd" clip-rule="evenodd" fill="white" d="M581.38,264.87c0,8.6,0.67,18.73,4.2,25.72
			c7.37,14.57,23.78,15.23,32.98,4.47c4.48-5.24,6.59-12.32,8.55-13.72c3.75,3.79,6.91,12,8.07,18.79c1.65,9.64-1.2,14.68-8.7,17.34
			c-10.26,3.65-22.77-2.27-32.68-5.83c-6.8-2.44-7.93-1.96-7.93,5.15c0.01,12.35,2.26,16.33-3.81,29.02
			c-2.32,4.85-2.78,9.57,2.23,11.58c5.82,2.34,20.56-2.08,28.57-3.36c15.05-2.4,27.61-1.62,44.58-6.21
			c4.32-1.17,8.66-2.38,13.03-3.52c4.32-1.13,9.17-2,13.04-3.89c3.15-1.54,7.32-4.93,8.25-8.65c1-4.01-2.61-9.75-4.21-12.42
			c-4.05-6.75-8.95-13.26-13.26-20.55c-4.18-7.07-7.88-14.29-11.86-21.95c-6.05-11.64-11.83-20.92-21.02-29.39
			c-2.18-2.01-7.35-5.29-10.41-6.5c-8.05-3.17-5.27,6.03-13.69,19.06c-1.85,2.86-6.26,8.73-8.62,2.04c-1.41-4-0.41-10.99,0.48-15.03
			c0.83-3.76,3.43-12.63,5.56-15.24c1.71-2.1,4.43-3.97,0.11-8.16c-3.18-3.09-15.47-10.59-21.11-12.7c-5.8-2.17-5.58,0.55-7.16,8.39
			C583.67,233.65,581.38,250.18,581.38,264.87z"/>
		<path fill-rule="evenodd" clip-rule="evenodd" fill="white" d="M665.64,146.55c0,0.92,5.7,5.82,7.48,7.62l20.89,25.29
			c7.57,9.89,14.38,19.33,21.32,29.7l16.41,27.06c0.34,0.53,0.7,1.07,1.14,1.58c0.6,0.69,2.01,2.04,3.1,2.04
			c5.71,0,13.18-25.33,14.79-31.39c3.52-13.3,4.13-21.12,5.82-34.32c0.17-1.3,0.52-4.01,0.53-5.51c0.02-2.28,0.31-3.33,0.3-5.44
			l0.08-10.96c-0.3-2.15-0.04-11.06-0.81-16.39c-0.25-1.69-0.38-3.6-0.49-5.25c-0.12-1.77-0.45-3.59-0.6-5.44
			c-0.49-5.84-2.27-14.35-4.22-18.72c-3.08-6.93-8.02-9.66-15.7-9.66c-9.61,0-22.07,9.3-30.07,14.61
			c-6.71,4.46-10.84,8.26-16.9,12.99l-19.67,18.06c-0.67,0.67-1.12,1.21-1.85,1.78C666.36,144.82,665.64,145.11,665.64,146.55z"/>
		<path fill-rule="evenodd" clip-rule="evenodd" fill="white" d="M224.03,239.82c1.9,0,4.15-3.17,4.96-5
			c2.21-5.01,18.02-29.56,21.82-34.62l6.38-9.02c5.04-6.86,14.53-19.65,20.05-25.83l9.5-11.03c9.47-9.84,10.72-5.43,0.61-15.54
			c-3-3-6.88-6.17-9.81-8.9l-5.9-5.27c-0.7-0.59-1.31-1.1-1.98-1.64l-6.34-5.13c-8.9-6.65-27.81-21.09-38.98-21.09
			c-7.66,0-12.38,2.56-15.6,9.45c-2.77,5.92-4.18,16.68-4.9,24.08l-1.24,15.96c0.02,4.19-0.31,7.19-0.01,10.89
			c0.14,1.68,0.02,3.98,0.01,5.72c-0.01,2.27,0.28,3.37,0.3,5.74c0.04,5.42,3.06,25,4.11,30.3c0.68,3.42,1.42,6.44,2.24,9.53
			c1.88,7.11,2.87,10.5,5.6,17.34C216.13,228.98,220.67,239.82,224.03,239.82z"/>
		<path fill-rule="evenodd" clip-rule="evenodd" fill="white" d="M181.47,175.23l0.69,19.54c0.32,2.33,0.44,5.7,0.74,8.02
			c0.36,2.84,0.45,5.12,0.86,7.9c1.84,12.65,2.65,17.33,5.44,29.88c3.31,14.89,6.75,26.74,11.33,41.19
			c0.69,2.16,3.93,12.11,5.7,12.11c1.98,0,2.06-0.85,2.75-3.28c2.03-7.09,3.92-14.19,6.26-21.21c4.13-12.34,2.74-9.14-1.43-21.73
			c-8.08-24.41-12.05-33.84-15.86-61.41c-1.23-8.89-1.98-19.3-1.98-29.11c0-5.76,0.57-12.69,0.62-17.5
			c0.07-6.99,1.53-22.27,2.89-28.2c3.46-15.1,10.89-22.52,26.68-22.52c13.42,0,27.54,9.27,36.24,14.47
			c5.31,3.18,10.43,6.51,15.7,9.66c8.35,5,15.32,9.05,23.47,14.56c1.31,0.89,2.23,1.89,3.55,2.79c1.63,1.12,1,0.33,3.31,2.13
			c1.71,1.33,2.99,0.13,4.66-1.06c9.29-6.6,15.23-11.78,26.28-18.1c2.7-1.55,5.48-2.99,8.15-4.53c2.08-1.2,9.2-4.13,6.67-7
			c-4.36-4.92-38.68-15.72-46.56-18.04c-2.51-0.74-5.19-1.43-7.57-2.09c-13.16-3.61-33.21-7.61-47.2-9.85
			c-10.64-1.71-30.2-3.13-39.77,0.95c-2.13,0.91-4.19,2.13-6.01,3.35c-5.4,3.61-7.96,6.85-11.2,12.64
			c-0.67,1.21-0.92,2.05-1.51,3.32c-1.98,4.23-3.77,9.5-5.03,14.29c-1.35,5.11-2.36,10.02-3.4,15.62c-0.47,2.52-0.99,5.32-1.47,8.19
			c-1.58,9.35-1.6,17.15-2.36,26.32l-0.31,9.35c0.01,2-0.32,2.6-0.32,4.51C181.46,172,181.47,173.61,181.47,175.23z"/>
		<path fill-rule="evenodd" clip-rule="evenodd" fill="white" d="M605.27,103.38c0,0.59,0.85,1.41,1.23,1.79
			c1.39,1.4,11.93,6.95,13.96,8.08c9.34,5.2,17.68,11.83,26.29,18.08c2.33,1.69,3.27,2.46,5.01,1.04c0.05-0.04,0.11-0.1,0.16-0.14
			c0.05-0.04,0.11-0.1,0.16-0.14c1.14-0.92,1.58-0.9,2.64-1.59c1.29-0.84,2.23-1.88,3.55-2.79c7.08-4.92,16-10.1,23.46-14.57
			c13.69-8.19,35.53-24.24,51.82-24.24c22.12,0,26.31,14.13,28.59,32.68c0.24,1.99,0.21,3.58,0.47,5.57
			c0.82,6.31,1.43,23.19,1.43,29.67c0,9.81-0.73,19.98-1.9,28.89c-3.52,26.66-7.98,37.94-15.87,61.71
			c-0.66,1.98-1.29,3.83-2.06,5.79c-2.97,7.54-2.3,7.63,0.48,15.95c2.4,7.19,4.22,14.02,6.27,21.2c2.9,10.16,7.1-4.22,8.45-8.37
			c2.52-7.73,8.95-29.35,10.65-37.64c0.28-1.34,0.44-2.36,0.75-3.78c3.16-14.2,4.71-22.95,6.26-37.51l1.47-32.36
			c0.01-2-0.32-2.6-0.32-4.51c-0.01-6.36-0.93-14.1-0.9-18.12c0.05-5.9-1.9-19.86-3.14-25.54c-0.62-2.83-1.01-5.27-1.57-8.09
			c-2.74-13.87-7.96-30.47-19.32-38.03c-9.43-6.27-16.53-6.22-28.5-6.22c-14.93,0-51.36,7.84-64.84,11.53
			c-14.8,4.06-35.79,10.41-49.47,17.24l-4.51,2.73C605.46,102.19,605.27,102.47,605.27,103.38z"/>
		<path fill-rule="evenodd" clip-rule="evenodd" fill="white" d="M249.39,317.09c0.9-0.61,1.73-2.16,2.54-3.19
			c1.01-1.29,1.64-2.13,2.53-3.5c0.78-1.2,1.26-2.39,2.04-3.69c0.45-0.75,0.65-1.29,1.05-1.97l3.13-5.62
			c5.13-8.63,10.01-17.42,15.57-25.79l21.52-28.28c3.43-4.11,13.8-14.49,17.63-17.69c0.59-0.49,0.97-0.95,1.52-1.5
			c1.95-1.97,4.27-3.59,6.34-5.43c1.13-1.01,2.16-1.74,3.33-2.71c8.74-7.19,18.53-13.04,28.2-18.89
			c7.42-4.49,15.47-8.51,23.57-11.74c17.55-6.99,36.99-11.57,56.38-14.25c43.52-6.03,87.24-3.81,129.28,8.33
			c14.52,4.2,28.33,9.88,41.19,17.67c2.51,1.52,4.88,2.86,7.36,4.41c7.16,4.49,14.31,9.11,20.84,14.48
			c3.19,2.63,6.59,5.08,9.52,7.99l9.05,8.76c2.04,2.04,3.84,3.86,5.89,5.88l11.01,12.53c6.69,7.47,18.85,26.11,23.91,34.95
			l10.59,18.69c1.43,2.47,2.77,5,4.56,7.22c0.8,0.99,1.77,2.76,2.68,3.36c0-3.34-1.33-6.59-2.22-9.25c-1.01-3-2.14-5.58-3.34-8.43
			c-0.61-1.46-1.14-2.59-1.72-4.01l-5.79-12.02c-0.43-0.79-0.58-0.91-1.01-1.71l-7.55-13.28c-6.09-10.28-13.4-19.4-21.01-28.49
			c-3.12-3.73-6.66-7.3-10.1-10.73c-1.85-1.85-3.97-4.26-5.9-5.87l-7.67-6.82c-0.68-0.58-0.9-0.88-1.6-1.42
			c-1.14-0.88-2.13-1.83-3.28-2.76c-6.53-5.32-13.33-9.91-20.39-14.63l-18.39-10.89c-10.44-5.18-17.43-8.41-29.07-12.29
			c-8.98-2.99-18.34-5.34-27.64-7.68c-3.28-0.82-6.32-1.29-9.78-1.99c-6.65-1.35-13.65-2.21-20.44-3.1c-4-0.53-12.16-0.82-15.71-1.8
			c-4.85-1.34-24.6-0.7-30.69-0.7c-1.93,0-3.56,0.2-5.1,0.63c-3.67,1.02-11.6,1.34-15.67,1.84c-13.54,1.66-26.62,4.07-39.72,7.37
			c-9.89,2.49-25.73,7.19-35.09,11.7c-16.1,7.74-29.9,15.46-44.34,26.29c-10.2,7.65-18.88,15.83-27.82,24.7
			c-2.98,2.95-5.68,6.24-8.45,9.36l-7.92,9.58c-0.87,1.14-1.69,2.21-2.59,3.45c-4.14,5.76-8.03,11.57-11.66,17.62
			c-0.8,1.34-1.36,2.48-2.18,3.86c-1.52,2.57-2.74,4.97-4.19,7.58c-1.29,2.31-2.88,5.46-3.87,7.9l-3.66,8.11
			C252.94,304.09,249.39,311.6,249.39,317.09z"/>
		<path fill-rule="evenodd" clip-rule="evenodd" fill="white" d="M567.01,561.69c16.99-3.89,36.66-9.78,51.95-16.6l12.88-5.84
			c4.15-2.09,14.24-6.95,18.4-9.37l14.81-8.13c1.02-0.53,1.99-1.09,3.11-1.72c2.07-1.15,3.93-2.33,5.94-3.42
			c9.74-5.27,17.03-10.48,25.86-15.79c2.34-1.41,2.51-0.87,2.81-2.02l-23.54,10.87c-5.61,2.79-17.77,9.39-22.85,11.56
			c-2.17,0.93-3.67,1.7-5.72,2.73l-17.78,8.18c-19.91,8.29-29.95,12.38-51.38,17.74c-6.18,1.55-11.49,2.74-16.43,3.73
			C566.2,556.09,566.89,558.82,567.01,561.69L567.01,561.69z M394.96,553.59c-5.18-1.04-10.42-2.21-15.96-3.59
			c-18.95-4.74-33.66-9.89-51.44-17.68c-1.98-0.87-3.81-1.75-5.85-2.6c-5.52-2.29-13.1-6.44-17.86-8.4l-31.31-15.77
			c-1.14-0.57-1.99-0.83-3.13-1.4l-12.17-5.34c0.39,1.48-0.25,0.18,2.62,1.91c1.03,0.62,1.9,1.11,2.81,1.71
			c0.91,0.6,1.81,1.21,2.71,1.81c0.99,0.66,1.9,1.19,2.96,1.87l11.44,6.98c2.06,1.14,3.69,2.18,5.74,3.32l8.86,5.02
			c0.55,0.32,0.98,0.48,1.59,0.82c0.74,0.41,0.74,0.49,1.51,0.9c5.51,2.94,12.61,7.08,18.01,9.76c8.92,4.42,16.05,8.1,25.14,11.99
			c5.51,2.35,14.14,5.8,20.03,7.74c11.89,3.93,20.74,6.3,32.34,9C393.11,558.79,393.81,556.06,394.96,553.59z"/>
		<path fill-rule="evenodd" clip-rule="evenodd" fill="white" d="M748.65,333.09c0,2.51,1.8,7.72,2.39,13
			c1.08,9.69,1.06,19.1,0.94,28.97l-0.91,13.88c-0.45,8.05-1.52,11.76-1.52,21.42c0,2.69,5.4,0.6,7.05,0.11
			c7.15-2.11,13.88-5.6,18.44-11.45c3.01-3.87,5.5-8.13,7.08-12.84c3.94-11.79,4.17-22.02,0.22-33.96
			c-4.37-13.24-12.82-21.15-27.06-21.84c-1.54-0.07-3.19-0.39-4.36-0.16C749.13,330.58,748.65,331.12,748.65,333.09z"/>
		<path fill-rule="evenodd" clip-rule="evenodd" fill="white" d="M174.83,369.01c0,6.9,1.29,11.9,3.05,17.17
			c3.08,9.23,9.28,17.25,18.27,21.57c1.51,0.72,14.29,6.29,14.29,2.61c0-5.39-0.3-7.2-0.6-12.07c-0.38-6.22-1.56-12.07-1.51-18.41
			c0.02-2.03-0.26-2.87-0.31-4.52c-0.29-9.66-0.03-26.36,1.89-35.25c0.6-2.77,1.44-4.08,1.44-7.01c0-3.91-3.2-2.81-6.34-2.72
			c-14.29,0.45-23,8.66-27.36,21.85C176.03,357.17,174.83,362.6,174.83,369.01z"/>
	</g>
</g>
<path fill-rule="evenodd" clip-rule="evenodd" fill="white" d="M545.96,547.34H414.04c-8.23,0-14.96,6.74-14.96,14.97v41.49
	c0,8.24,6.73,14.97,14.96,14.97h131.92c8.23,0,14.96-6.73,14.96-14.97v-41.49C560.92,554.08,554.19,547.34,545.96,547.34z
	 M441.1,604.73c-11.93,0-20.84-8.83-20.84-20.56c0-11.79,8.91-20.62,20.84-20.62c10.28,0,18.23,6.78,19.83,16.72h-10.95
	c-1.34-4.02-4.73-6.63-8.85-6.63c-5.56,0-9.63,4.46-9.63,10.53c0,6.05,4.07,10.44,9.63,10.44c4.35,0,7.76-2.83,8.86-7.19h11.05
	C459.55,597.73,451.54,604.73,441.1,604.73z M494.87,574.26h-10.64v29.48h-10.85v-29.48h-10.65v-9.72h32.14V574.26z M518.23,604.73
	c-12.6,0-21.59-8.61-21.59-20.59c0-11.98,8.99-20.59,21.59-20.59c12.57,0,21.53,8.57,21.53,20.59
	C539.76,596.15,530.8,604.73,518.23,604.73z M518.23,573.6c-5.97,0-10.35,4.44-10.35,10.54c0,6.1,4.38,10.54,10.35,10.54
	c5.97,0,10.29-4.41,10.29-10.54C528.52,578,524.2,573.6,518.23,573.6z"/>
</svg>
