<?xml version="1.0" encoding="utf-8"?>
<!-- Generator: Adobe Illustrator 27.6.1, SVG Export Plug-In . SVG Version: 6.00 Build 0)  -->
<svg version="1.1" id="Calque_1" xmlns="http://www.w3.org/2000/svg" xmlns:xlink="http://www.w3.org/1999/xlink" x="0px" y="0px"
	 viewBox="0 0 800 800" enable-background="new 0 0 800 800" xml:space="preserve">
<path fill-rule="evenodd" clip-rule="evenodd" fill="white" d="M451.64,314.13c18.35-9.15,41.71-22.62,65.09-41.08
	c4.93,10.24,5.47,19.17,2.93,26.39c-1.8,5.08-5.19,9.51-9.65,13.02c-4.83,3.8-10.86,6.57-17.53,8.07
	C479.82,323.37,465.05,321.71,451.64,314.13 M454.82,407.9l24.3,14.03c-49.61,27.8-63.09,79.43-79.11,129.72
	c-16.02-50.29-29.51-101.91-79.11-129.72l24.3-14.03c4.82-1.82,7.92-6.54,7.68-11.69c-2.23-47.09,10.49-67.92,27.64-81
	c6.15-4.68,12.87-7.04,19.49-7.04s13.34,2.35,19.5,7.04c17.15,13.08,29.87,33.9,27.64,81C446.9,401.36,450,406.08,454.82,407.9
	L454.82,407.9z M400,100.4c28.08,0.75,56.24,6.21,80.67,16.81c16.92,7.35,32.71,17.07,47,28.68c6.46,5.24,11.77,10.31,17.63,16.14
	c15.79,0.55,38.88-17,49.59-33.42c-18.44,60.46-102.6,131.86-160.86,159.18c-0.02-0.01-0.04-0.02-0.06-0.04
	c-10.46-7.98-22.22-11.98-33.98-11.98s-23.52,3.99-33.98,11.98c-0.02,0.01-0.03,0.03-0.06,0.04
	c-58.26-27.32-142.42-98.72-160.86-159.18c10.71,16.42,33.8,33.96,49.59,33.42c5.86-5.83,11.17-10.9,17.63-16.14
	c14.3-11.62,30.08-21.33,47-28.68C343.76,106.6,371.92,101.15,400,100.4 M348.36,314.13c-18.35-9.15-41.71-22.62-65.09-41.08
	c-4.93,10.24-5.47,19.17-2.93,26.39c1.8,5.08,5.19,9.51,9.65,13.02c4.83,3.8,10.86,6.57,17.53,8.07
	C320.18,323.37,334.95,321.71,348.36,314.13"/>
<path fill-rule="evenodd" clip-rule="evenodd" fill="white" d="M542.33,250.43c12.87-12.99,24.21-27.37,33.33-40.2l4.63,8.72
	c14.91,29.83,22.66,59.55,22.66,92.99L602.93,365l0.28,27.51c1.08,67.53,15.69,135.86,48.79,198.39l-69.25-55.84l-49,79.52
	l-51.48-48.46L400,699.6l-82.26-133.5l-51.48,48.46l-49-79.52L148,590.9c33.1-62.53,47.71-130.85,48.79-198.39l0.28-27.51
	l-0.03-53.06c0-33.44,7.75-63.16,22.66-92.99l4.63-8.72c9.12,12.83,20.46,27.21,33.33,40.2l-4.02,8.35
	c-7.81,16.22-10.4,34.35-4.31,51.6c3.92,11.11,11.08,20.63,20.31,27.91c8.96,7.06,19.56,11.82,30.67,14.32
	c7.23,1.63,14.6,2.3,21.92,2.07c-1.71,9.68-2.45,19.72-2.5,29.96l-65.33,37.73l50.41,28.26c4.03,2.26,7.87,4.85,11.47,7.74
	c41.56,37.32,66.55,147.71,83.72,201.63c17.17-53.92,42.16-164.32,83.72-201.63c3.6-2.89,7.44-5.48,11.47-7.74l50.41-28.26
	l-65.33-37.73c-0.05-10.23-0.79-20.27-2.5-29.96c7.32,0.23,14.69-0.44,21.92-2.07c11.1-2.5,21.71-7.26,30.67-14.32
	c9.23-7.27,16.39-16.8,20.31-27.91c6.09-17.25,3.5-35.38-4.31-51.6L542.33,250.43L542.33,250.43z"/>
</svg>
