<?xml version="1.0" encoding="utf-8"?>
<!-- Generator: Adobe Illustrator 27.6.1, SVG Export Plug-In . SVG Version: 6.00 Build 0)  -->
<svg version="1.1" id="Calque_1" xmlns="http://www.w3.org/2000/svg" xmlns:xlink="http://www.w3.org/1999/xlink" x="0px" y="0px"
	 viewBox="0 0 800 800" enable-background="new 0 0 800 800" xml:space="preserve">
<g id="Layer_2">
	<g>
		<path fill="white" d="M683.99,122.36c-90.23,37.37-477.15,197.64-584.05,241.32c-71.69,27.98-29.72,54.21-29.72,54.21
			s61.2,20.98,113.67,36.72c52.46,15.74,80.44-1.75,80.44-1.75l246.56-166.12c87.43-59.45,66.45-10.49,45.46,10.49
			C510.87,342.7,435.68,414.39,372.73,472.1c-27.98,24.48-13.99,45.46-1.75,55.96c45.46,38.47,169.62,117.16,176.61,122.41
			c36.94,26.15,109.6,63.8,120.66-15.74l43.72-274.54c13.99-92.68,27.98-178.36,29.72-202.84
			C746.94,97.88,683.99,122.36,683.99,122.36z"/>
	</g>
</g>
</svg>
