<?xml version="1.0" encoding="utf-8"?>
<!-- Generator: Adobe Illustrator 27.6.1, SVG Export Plug-In . SVG Version: 6.00 Build 0)  -->
<svg version="1.1" id="Calque_1" xmlns="http://www.w3.org/2000/svg" xmlns:xlink="http://www.w3.org/1999/xlink" x="0px" y="0px"
	 viewBox="0 0 800 800" enable-background="new 0 0 800 800" xml:space="preserve">
<g>
	<path fill="white" d="M645.24,172.34c-45.74-21.4-94.64-36.95-145.77-45.81c-6.28,11.35-13.61,26.62-18.67,38.77
		c-54.35-8.17-108.2-8.17-161.55,0c-5.06-12.15-12.56-27.42-18.89-38.77c-51.18,8.86-100.14,24.46-145.88,45.92
		C62.23,311.85,37.22,447.79,49.73,581.8c61.19,45.69,120.48,73.45,178.78,91.61c14.39-19.81,27.23-40.87,38.29-63.06
		c-21.06-8-41.23-17.88-60.3-29.34c5.06-3.75,10-7.66,14.78-11.69c116.26,54.38,242.57,54.38,357.44,0
		c4.83,4.03,9.78,7.95,14.78,11.69c-19.12,11.52-39.34,21.4-60.41,29.4c11.06,22.14,23.84,43.25,38.29,63.06
		c58.35-18.16,117.7-45.92,178.89-91.67C764.94,426.45,725.21,291.76,645.24,172.34z M282.63,499.39
		c-34.9,0-63.52-32.58-63.52-72.26s28.01-72.31,63.52-72.31c35.51,0,64.13,32.58,63.52,72.31
		C346.2,466.81,318.14,499.39,282.63,499.39z M517.37,499.39c-34.9,0-63.52-32.58-63.52-72.26s28.01-72.31,63.52-72.31
		c35.51,0,64.13,32.58,63.52,72.31C580.89,466.81,552.88,499.39,517.37,499.39z"/>
</g>
</svg>
